<svg width="161" height="196" viewBox="0 0 161 196" fill="none" xmlns="http://www.w3.org/2000/svg">
<path d="M42.9392 17.668V92.0162" stroke="#A9563F" stroke-width="4.44266" stroke-linecap="round"/>
<path d="M35.449 25.4375L42.107 32.0956" stroke="#A9563F" stroke-width="4.44266" stroke-linecap="round"/>
<path d="M35.449 84.2285L42.107 77.5705" stroke="#A9563F" stroke-width="4.44266" stroke-linecap="round"/>
<path d="M50.4275 25.4375L43.7694 32.0956" stroke="#A9563F" stroke-width="4.44266" stroke-linecap="round"/>
<path d="M50.4275 84.2285L43.7694 77.5705" stroke="#A9563F" stroke-width="4.44266" stroke-linecap="round"/>
<path d="M10.7461 36.25L75.1336 73.4241" stroke="#A9563F" stroke-width="4.44266" stroke-linecap="round"/>
<path d="M13.7295 46.623L22.8246 44.186" stroke="#A9563F" stroke-width="4.44266" stroke-linecap="round"/>
<path d="M64.6455 76.0195L62.2085 66.9245" stroke="#A9563F" stroke-width="4.44266" stroke-linecap="round"/>
<path d="M21.2197 33.6484L23.6567 42.7435" stroke="#A9563F" stroke-width="4.44266" stroke-linecap="round"/>
<path d="M72.1387 63.0508L63.0436 65.4878" stroke="#A9563F" stroke-width="4.44266" stroke-linecap="round"/>
<path d="M10.7502 73.426L75.1377 36.2519" stroke="#A9563F" stroke-width="4.44266" stroke-linecap="round"/>
<path d="M21.2209 76.0315L23.658 66.9364" stroke="#A9563F" stroke-width="4.44266" stroke-linecap="round"/>
<path d="M72.1409 46.6292L63.0458 44.1921" stroke="#A9563F" stroke-width="4.44266" stroke-linecap="round"/>
<path d="M13.7317 63.0549L22.8268 65.4919" stroke="#A9563F" stroke-width="4.44266" stroke-linecap="round"/>
<path d="M64.6487 33.6604L62.2117 42.7555" stroke="#A9563F" stroke-width="4.44266" stroke-linecap="round"/>
<path d="M105.513 56.7118C105.513 55.076 104.187 53.75 102.551 53.75H65.529C63.8932 53.75 62.5672 55.076 62.5672 56.7118V99.6645C62.5672 103.049 60.5497 106.039 57.9373 108.19C53.2209 112.075 49.7913 117.844 48.735 124.626C46.5808 138.46 55.1139 151.274 67.7943 153.249C72.9408 154.05 77.9795 152.943 82.2941 150.419C83.3808 149.784 84.738 149.784 85.8247 150.419C90.1394 152.943 95.1781 154.05 100.325 153.249C113.005 151.274 121.538 138.46 119.384 124.626C118.326 117.832 114.886 112.056 110.157 108.17C107.537 106.018 105.513 103.025 105.513 99.634V56.7118Z" fill="#F4F1F4" stroke="#A9563F" stroke-width="3.50552"/>
<path d="M100.097 85.589C100.097 83.9532 98.7713 82.6272 97.1356 82.6272H70.9545C69.3187 82.6272 67.9927 83.9532 67.9927 85.589V105.639C67.9927 109.033 65.9214 112.008 63.4666 114.352C60.4931 117.19 58.36 121.097 57.6523 125.61C56.0419 135.877 62.4209 145.389 71.9003 146.855C75.5691 147.422 79.1645 146.701 82.2873 145.009C83.3877 144.412 84.7314 144.412 85.8318 145.009C88.9545 146.701 92.55 147.422 96.2187 146.855C105.698 145.389 112.077 135.877 110.467 125.61C109.758 121.09 107.619 117.177 104.637 114.337C102.176 111.993 100.097 109.013 100.097 105.614V85.589Z" fill="#A9563F"/>
<rect x="84.0586" width="68.8574" height="68.8574" rx="17.5276" fill="#A9563F"/>
<path d="M108.375 35.7187C107.831 35.7187 107.267 35.6784 106.683 35.5979C106.119 35.5374 105.575 35.4468 105.051 35.3259C104.547 35.2252 104.084 35.1144 103.661 34.9936C103.61 34.9767 103.561 34.9599 103.513 34.9433C103.017 34.7709 102.777 34.2468 102.896 33.7353L103.09 32.9028C103.259 32.1763 104.065 31.7766 104.77 32.0193C104.925 32.0727 105.09 32.1275 105.263 32.1837C106.068 32.4254 107.065 32.5462 108.254 32.5462C109.845 32.5462 110.993 32.2441 111.698 31.6398C112.403 31.0154 112.756 30.1896 112.756 29.1623C112.756 28.4976 112.615 27.9436 112.333 27.5005C112.071 27.0574 111.698 26.7049 111.215 26.443C110.751 26.161 110.208 25.9697 109.583 25.8689C108.979 25.7481 108.334 25.6877 107.649 25.6877H107.579C106.934 25.6877 106.411 25.1645 106.411 24.5192V23.8952C106.411 23.2498 106.934 22.7267 107.579 22.7267H107.921C108.385 22.7267 108.848 22.6864 109.311 22.6058C109.795 22.5051 110.228 22.344 110.61 22.1224C110.993 21.8807 111.305 21.5685 111.547 21.1858C111.789 20.8031 111.91 20.3096 111.91 19.7053C111.91 19.2219 111.819 18.8089 111.638 18.4665C111.456 18.1241 111.215 17.8421 110.913 17.6205C110.631 17.3989 110.298 17.2378 109.915 17.1371C109.533 17.0364 109.13 16.986 108.707 16.986C107.801 16.986 106.995 17.127 106.29 17.409C106.038 17.5026 105.796 17.6014 105.564 17.7054C104.931 17.99 104.15 17.7709 103.845 17.1466L103.544 16.5301C103.283 15.9976 103.464 15.3538 103.991 15.0842C104.032 15.0636 104.073 15.0429 104.114 15.0221C104.517 14.8207 104.96 14.6293 105.444 14.448C105.947 14.2667 106.481 14.1257 107.045 14.025C107.609 13.9042 108.203 13.8438 108.828 13.8438C109.996 13.8438 111.003 13.9847 111.849 14.2667C112.695 14.5487 113.39 14.9516 113.934 15.4753C114.498 15.9789 114.911 16.5832 115.173 17.2882C115.455 17.973 115.596 18.7284 115.596 19.5542C115.596 20.5211 115.324 21.3872 114.78 22.1526C114.417 22.6824 113.978 23.1254 113.461 23.4815C113.203 23.6589 113.227 24.0967 113.506 24.2394C114.25 24.6209 114.886 25.1439 115.414 25.8085C116.14 26.6948 116.502 27.8329 116.502 29.2227C116.502 30.1493 116.341 31.0154 116.019 31.8211C115.696 32.6067 115.203 33.2915 114.538 33.8757C113.874 34.4397 113.028 34.8929 112 35.2353C110.993 35.5576 109.785 35.7187 108.375 35.7187Z" fill="#FAF6F4"/>
<path d="M134.279 24.7812C134.279 28.3062 133.634 31.0154 132.345 32.9088C131.056 34.7821 129.273 35.7187 126.997 35.7187C124.721 35.7187 122.939 34.7821 121.649 32.9088C120.36 31.0154 119.716 28.3062 119.716 24.7812C119.716 23.0288 119.877 21.4778 120.199 20.1283C120.542 18.7586 121.025 17.6104 121.649 16.6839C122.294 15.7573 123.059 15.0523 123.946 14.5689C124.852 14.0855 125.869 13.8438 126.997 13.8438C129.273 13.8438 131.056 14.7905 132.345 16.6839C133.634 18.5571 134.279 21.2563 134.279 24.7812ZM130.502 24.7812C130.502 23.6935 130.442 22.6763 130.321 21.7296C130.2 20.7829 129.999 19.9671 129.717 19.2823C129.455 18.5773 129.102 18.0234 128.659 17.6205C128.216 17.2177 127.662 17.0162 126.997 17.0162C126.333 17.0162 125.769 17.2177 125.305 17.6205C124.862 18.0234 124.5 18.5773 124.218 19.2823C123.956 19.9671 123.764 20.7829 123.644 21.7296C123.543 22.6763 123.492 23.6935 123.492 24.7812C123.492 25.8689 123.543 26.8862 123.644 27.8329C123.764 28.7796 123.956 29.6054 124.218 30.3104C124.5 30.9953 124.862 31.5391 125.305 31.942C125.769 32.3448 126.333 32.5462 126.997 32.5462C127.662 32.5462 128.216 32.3448 128.659 31.942C129.102 31.5391 129.455 30.9953 129.717 30.3104C129.999 29.6054 130.2 28.7796 130.321 27.8329C130.442 26.8862 130.502 25.8689 130.502 24.7812Z" fill="#FAF6F4"/>
<path d="M103.075 40.7168C103.492 40.7168 103.879 40.9382 104.078 41.305C104.29 41.6987 104.518 42.1422 104.76 42.6353C105.131 43.3917 105.509 44.1894 105.895 45.0283C106.28 45.8534 106.658 46.6992 107.029 47.5657C107.287 48.1376 107.53 48.6817 107.758 49.1979C107.881 49.4786 108.281 49.4784 108.403 49.1971C108.627 48.6811 108.864 48.1373 109.113 47.5657C109.484 46.6992 109.862 45.8534 110.247 45.0283C110.632 44.1894 111.011 43.3917 111.382 42.6353C111.624 42.1422 111.851 41.6987 112.064 41.305C112.263 40.9382 112.649 40.7168 113.066 40.7168H113.706C114.298 40.7168 114.797 41.1597 114.862 41.7484C114.943 42.4869 115.021 43.257 115.095 44.0587C115.205 45.2277 115.301 46.4311 115.384 47.6688C115.48 48.8928 115.563 50.1306 115.632 51.3821C115.686 52.1967 115.734 52.9994 115.777 53.7902C115.812 54.4559 115.28 55.0128 114.614 55.0128H114.41C113.78 55.0128 113.263 54.5129 113.241 53.883C113.193 52.5763 113.137 51.2407 113.074 49.8761C113.022 48.5567 112.947 47.2682 112.849 46.0106C112.822 45.6606 112.356 45.5768 112.207 45.8947C112.001 46.3348 111.781 46.8161 111.547 47.3387C111.313 47.8476 111.072 48.3771 110.825 48.9272C110.591 49.4773 110.357 50.0137 110.124 50.5363C109.903 51.0451 109.697 51.5265 109.505 51.9803C109.438 52.1317 109.375 52.2758 109.316 52.4126C109.129 52.8389 108.709 53.1149 108.243 53.1149H107.837C107.371 53.1149 106.95 52.8391 106.768 52.4112C106.707 52.2692 106.643 52.1186 106.575 51.9597C106.383 51.5058 106.17 51.0245 105.936 50.5156C105.716 49.993 105.482 49.4567 105.234 48.9066C105.001 48.3565 104.767 47.827 104.533 47.3181C104.299 46.8093 104.079 46.3348 103.873 45.8947C103.87 45.8872 103.866 45.8798 103.863 45.8723C103.717 45.5512 103.259 45.6344 103.231 45.9861C103.13 47.2515 103.048 48.5481 102.986 49.8761C102.933 51.2407 102.883 52.5763 102.838 53.8829C102.817 54.5129 102.3 55.0128 101.67 55.0128H101.466C100.8 55.0128 100.268 54.4559 100.301 53.7901C100.34 52.9916 100.383 52.1752 100.428 51.3408C100.51 50.0755 100.593 48.824 100.675 47.5863C100.772 46.3348 100.875 45.1246 100.985 43.9556C101.058 43.1778 101.134 42.4396 101.214 41.741C101.28 41.1555 101.778 40.7168 102.367 40.7168H103.075Z" fill="#FAF6F4"/>
<path d="M118.866 41.8853C118.866 41.24 119.389 40.7168 120.034 40.7168H120.297C120.942 40.7168 121.465 41.24 121.465 41.8853V53.8443C121.465 54.4896 120.942 55.0128 120.297 55.0128H120.034C119.389 55.0128 118.866 54.4896 118.866 53.8443V41.8853Z" fill="#FAF6F4"/>
<path d="M135.187 55.0128C134.775 55.0128 134.395 54.796 134.181 54.4446C133.804 53.827 133.396 53.1775 132.955 52.496C132.378 51.5883 131.78 50.6807 131.161 49.773C130.542 48.8516 129.909 47.9645 129.263 47.1118C128.849 46.5449 128.447 46.0163 128.056 45.5259C127.853 45.2699 127.447 45.4159 127.447 45.7431V53.8443C127.447 54.4896 126.924 55.0128 126.279 55.0128H126.058C125.413 55.0128 124.889 54.4896 124.889 53.8443V41.8853C124.889 41.24 125.413 40.7168 126.058 40.7168H126.513C126.833 40.7168 127.14 40.8469 127.355 41.0833C127.807 41.579 128.285 42.1445 128.788 42.7797C129.421 43.5636 130.054 44.3819 130.686 45.2346C131.333 46.0872 131.952 46.9468 132.543 47.8132C132.88 48.2884 133.196 48.7465 133.49 49.1875C133.686 49.4799 134.152 49.3431 134.152 48.9915V41.8853C134.152 41.24 134.675 40.7168 135.32 40.7168H135.562C136.207 40.7168 136.731 41.24 136.731 41.8853V53.8443C136.731 54.4896 136.207 55.0128 135.562 55.0128H135.187Z" fill="#FAF6F4"/>
<g opacity="0.06" filter="url(#filter0_f_1_268)">
<ellipse cx="80.5" cy="174.012" rx="72.5" ry="13" fill="#A25E4B"/>
</g>
<defs>
<filter id="filter0_f_1_268" x="0" y="153.012" width="161" height="42" filterUnits="userSpaceOnUse" color-interpolation-filters="sRGB">
<feFlood flood-opacity="0" result="BackgroundImageFix"/>
<feBlend mode="normal" in="SourceGraphic" in2="BackgroundImageFix" result="shape"/>
<feGaussianBlur stdDeviation="4" result="effect1_foregroundBlur_1_268"/>
</filter>
</defs>
</svg>
