<svg width="161" height="198" viewBox="0 0 161 198" fill="none" xmlns="http://www.w3.org/2000/svg">
<path fill-rule="evenodd" clip-rule="evenodd" d="M108.689 3.4608C113.191 6.36059 118.957 10.6924 124.15 14.7727C131.443 20.5043 139.215 28.9766 135.067 37.274C132.377 42.656 128.046 50.847 126.216 54.2697C125.449 55.332 123.03 57.1378 119.489 55.8631C116.681 54.8521 114.325 53.1126 112.464 50.9044C115.309 46.4733 115.919 37.5169 113.612 27.7931C110.816 16.0137 104.703 7.16409 99.3545 6.6672C100.707 2.50844 103.911 0.383595 108.689 3.4608Z" fill="#A9563F"/>
<path d="M124.15 14.7727L124.82 13.9198L124.15 14.7727ZM108.689 3.4608L109.276 2.54884V2.54884L108.689 3.4608ZM135.067 37.274L136.037 37.759L135.067 37.274ZM126.216 54.2697L127.096 54.9048L127.139 54.8456L127.173 54.781L126.216 54.2697ZM119.489 55.8631L119.856 54.8424L119.489 55.8631ZM112.464 50.9044L111.551 50.3183L111.119 50.9916L111.635 51.6034L112.464 50.9044ZM113.612 27.7931L114.667 27.5426L113.612 27.7931ZM99.3545 6.6672L98.3229 6.33168L97.9033 7.6218L99.2541 7.7473L99.3545 6.6672ZM124.82 13.9198C119.622 9.83521 113.823 5.4774 109.276 2.54884L108.101 4.37276C112.559 7.24378 118.293 11.5495 123.479 15.6256L124.82 13.9198ZM136.037 37.759C138.336 33.1607 137.277 28.5597 134.828 24.5008C132.391 20.4627 128.505 16.8154 124.82 13.9198L123.479 15.6256C127.088 18.4617 130.734 21.9163 132.97 25.6216C135.193 29.306 135.946 33.0899 134.097 36.7889L136.037 37.759ZM127.173 54.781C129.003 51.3571 133.34 43.1551 136.037 37.759L134.097 36.7889C131.414 42.1568 127.088 50.3368 125.26 53.7584L127.173 54.781ZM119.121 56.8837C123.209 58.3552 126.107 56.2741 127.096 54.9048L125.337 53.6346C124.791 54.3898 122.85 55.9203 119.856 54.8424L119.121 56.8837ZM111.635 51.6034C113.606 53.9435 116.117 55.8021 119.121 56.8837L119.856 54.8424C117.244 53.9021 115.043 52.2816 113.294 50.2054L111.635 51.6034ZM112.556 28.0435C113.689 32.8164 114.1 37.3818 113.887 41.2742C113.672 45.1906 112.831 48.3252 111.551 50.3183L113.377 51.4905C114.942 49.0525 115.829 45.4933 116.053 41.3929C116.279 37.2683 115.842 32.4935 114.667 27.5426L112.556 28.0435ZM99.2541 7.7473C101.421 7.9486 104.039 9.92418 106.543 13.6089C109.002 17.2276 111.183 22.2576 112.556 28.0435L114.667 27.5426C113.245 21.5492 110.971 16.2647 108.338 12.3895C105.749 8.58037 102.636 5.88269 99.4548 5.58709L99.2541 7.7473ZM109.276 2.54884C106.708 0.894833 104.326 0.496284 102.313 1.35224C100.342 2.19008 99.0497 4.09723 98.3229 6.33168L100.386 7.00272C101.012 5.07841 101.998 3.84376 103.162 3.34878C104.283 2.87193 105.892 2.94956 108.101 4.37276L109.276 2.54884Z" fill="#A9563F"/>
<path fill-rule="evenodd" clip-rule="evenodd" d="M51.3108 3.4608C46.8087 6.36059 41.0422 10.6924 35.85 14.7727C28.5564 20.5043 20.7849 28.9766 24.9325 37.274C27.6229 42.656 31.9541 50.847 33.7834 54.2697C34.5506 55.332 36.9701 57.1378 40.5109 55.8631C43.6349 54.7384 46.1988 52.7122 48.1444 50.1421C46.0747 45.5013 45.885 37.1916 48.0233 28.1808C50.6661 17.0441 56.0046 8.46199 60.7656 7.05967C59.4897 2.64516 56.2365 0.288216 51.3108 3.4608Z" fill="#A9563F"/>
<path d="M35.85 14.7727L35.1797 13.9198V13.9198L35.85 14.7727ZM51.3108 3.4608L50.7234 2.54884V2.54884L51.3108 3.4608ZM24.9325 37.274L23.9623 37.759L24.9325 37.274ZM33.7834 54.2697L32.904 54.9048L32.8612 54.8456L32.8267 54.781L33.7834 54.2697ZM40.5109 55.8631L40.1435 54.8424H40.1435L40.5109 55.8631ZM48.1444 50.1421L49.1351 49.7003L49.3961 50.2858L49.0092 50.7969L48.1444 50.1421ZM48.0233 28.1808L49.0787 28.4313L48.0233 28.1808ZM60.7656 7.05967L61.8077 6.75847L62.1074 7.7953L61.0721 8.10023L60.7656 7.05967ZM35.1797 13.9198C40.3773 9.83521 46.1767 5.47739 50.7234 2.54884L51.8982 4.37276C47.4408 7.24378 41.707 11.5495 36.5203 15.6256L35.1797 13.9198ZM23.9623 37.759C21.6637 33.1607 22.7229 28.5597 25.172 24.5008C27.6086 20.4627 31.4951 16.8154 35.1797 13.9198L36.5203 15.6256C32.9113 18.4617 29.2653 21.9163 27.0296 25.6216C24.8065 29.306 24.0538 33.0899 25.9028 36.7889L23.9623 37.759ZM32.8267 54.781C30.9967 51.3571 26.6596 43.1551 23.9623 37.759L25.9028 36.7889C28.5861 42.1568 32.9114 50.3368 34.7401 53.7584L32.8267 54.781ZM40.8783 56.8837C36.7908 58.3552 33.8929 56.2741 32.904 54.9048L34.6628 53.6346C35.2082 54.3898 37.1494 55.9203 40.1435 54.8424L40.8783 56.8837ZM49.0092 50.7969C46.9514 53.5153 44.2216 55.6802 40.8783 56.8837L40.1435 54.8424C43.0483 53.7967 45.4463 51.909 47.2795 49.4874L49.0092 50.7969ZM49.0787 28.4313C46.9626 37.3487 47.2076 45.3783 49.1351 49.7003L47.1537 50.584C44.9419 45.6243 44.8074 37.0345 46.9678 27.9303L49.0787 28.4313ZM61.0721 8.10023C59.0959 8.6823 56.7532 10.8763 54.5267 14.5339C52.3353 18.1339 50.3785 22.954 49.0787 28.4313L46.9678 27.9303C48.3108 22.2709 50.3447 17.2317 52.6735 13.4058C54.9673 9.63763 57.6743 6.83936 60.4591 6.01911L61.0721 8.10023ZM50.7234 2.54884C53.3725 0.842556 55.8229 0.474747 57.8672 1.43284C59.8556 2.36472 61.1268 4.40253 61.8077 6.75847L59.7235 7.36088C59.1285 5.3023 58.1351 3.95438 56.9465 3.39731C55.8138 2.86645 54.1747 2.90646 51.8982 4.37276L50.7234 2.54884Z" fill="#A9563F"/>
<path d="M54.0031 59.7324L43.2862 87.92C43.0989 88.4125 43.0029 88.935 43.0029 89.462V117.48C43.0029 119.876 44.9456 121.819 47.342 121.819H115.366C117.762 121.819 119.705 119.876 119.705 117.48V89.6022C119.705 88.9845 119.573 88.3739 119.318 87.8113L106.595 59.7324" stroke="#A9563F" stroke-width="3"/>
<path d="M88.8382 54.4742C88.8382 57.5104 85.5114 60.5675 80.5753 60.5675C75.6392 60.5675 72.3125 57.5104 72.3125 54.4742C72.3125 51.4379 75.6392 48.3809 80.5753 48.3809C85.5114 48.3809 88.8382 51.4379 88.8382 54.4742Z" stroke="#A9563F" stroke-width="3"/>
<path d="M101.382 32.1583C101.382 33.8473 100.898 35.3125 100.192 36.3157C99.4841 37.3232 98.6473 37.7579 97.8896 37.7579C97.1318 37.7579 96.2951 37.3232 95.5866 36.3157C94.8812 35.3125 94.3975 33.8473 94.3975 32.1583C94.3975 30.4692 94.8812 29.004 95.5866 28.0008C96.2951 26.9933 97.1318 26.5586 97.8896 26.5586C98.6473 26.5586 99.4841 26.9933 100.192 28.0008C100.898 29.004 101.382 30.4692 101.382 32.1583Z" stroke="#A9563F" stroke-width="3"/>
<path d="M66.4598 32.1583C66.4598 33.8473 65.976 35.3125 65.2706 36.3157C64.5622 37.3232 63.7255 37.7579 62.9677 37.7579C62.2099 37.7579 61.3732 37.3232 60.6648 36.3157C59.9594 35.3125 59.4756 33.8473 59.4756 32.1583C59.4756 30.4692 59.9594 29.004 60.6648 28.0008C61.3732 26.9933 62.2099 26.5586 62.9677 26.5586C63.7255 26.5586 64.5622 26.9933 65.2706 28.0008C65.976 29.004 66.4598 30.4692 66.4598 32.1583Z" stroke="#A9563F" stroke-width="3"/>
<path d="M59.8266 51.5229L59.827 51.5224L72.8292 32.2765C76.5374 26.7881 84.6142 26.7881 88.3224 32.2765L101.324 51.521C101.921 52.4072 102.34 53.3258 102.602 54.2498C102.632 54.3561 102.663 54.4649 102.694 54.5755C102.804 54.9675 102.921 55.3824 103.047 55.7891C103.52 57.3196 103.782 58.9804 103.782 60.7209C103.782 68.6917 98.4374 74.6703 92.3874 74.6703C88.1141 74.6703 84.238 71.7392 82.2811 67.158L80.9017 67.7472L82.2811 67.1579C82.0121 66.5282 81.3902 66.1024 80.6838 66.1024C79.9775 66.1024 79.3556 66.5282 79.0866 67.1579L79.0866 67.1579C77.1298 71.7389 73.2517 74.6703 68.9782 74.6703C62.9282 74.6703 57.584 68.6917 57.584 60.7209C57.584 59.4691 57.7173 58.253 57.9685 57.1021C58.0875 56.5571 58.1885 56.0023 58.2839 55.4784C58.309 55.3408 58.3337 55.2053 58.3582 55.0727C58.581 53.867 59.0558 52.6627 59.8266 51.5229Z" stroke="#A9563F" stroke-width="3"/>
<path d="M74.416 74.6387C76.4356 76.9277 81.8483 80.1324 87.342 74.6387" stroke="#A9563F" stroke-width="3" stroke-linecap="round"/>
<path fill-rule="evenodd" clip-rule="evenodd" d="M77.0409 5.38477H84.01C99.7719 5.38477 112.277 18.6622 111.334 34.3959L110.79 43.4795C110.432 49.4548 108.176 54.8855 104.631 59.2017V63.6258C109.888 58.5188 113.314 51.5128 113.784 43.659L114.329 34.5754C115.375 17.1174 101.499 2.38477 84.01 2.38477H77.0409C59.4703 2.38477 45.5651 17.2487 46.735 34.7803L47.339 43.8316C47.8773 51.8981 51.5321 59.0584 57.084 64.1651V59.8807C53.23 55.4998 50.7484 49.8661 50.3324 43.6318L49.7284 34.5806C48.674 18.7806 61.2057 5.38477 77.0409 5.38477Z" fill="#A9563F"/>
<path fill-rule="evenodd" clip-rule="evenodd" d="M110.964 69.3184C111.638 69.8008 111.792 70.7378 111.31 71.4113L85.2972 107.727C82.9578 110.993 78.0957 110.975 75.7795 107.693L67.5956 96.0954C67.1135 95.4123 67.2831 94.4668 67.9725 93.9938C68.6492 93.5294 69.5736 93.6951 70.0468 94.3657L78.2306 105.963C79.3568 107.559 81.7209 107.568 82.8583 105.98L108.871 69.6643C109.354 68.9909 110.291 68.836 110.964 69.3184ZM62.3059 85.9635C61.6165 86.4366 61.4469 87.382 61.929 88.0651L63.0025 89.5864C63.4757 90.257 64.4 90.4228 65.0768 89.9584C65.7662 89.4853 65.9357 88.5399 65.4537 87.8567L64.3802 86.3355C63.907 85.6649 62.9826 85.4991 62.3059 85.9635ZM58.4287 83.1047C58.9019 83.7753 59.8262 83.9411 60.503 83.4767C61.1924 83.0036 61.3619 82.0582 60.8798 81.375L52.6266 69.6791C52.149 69.0023 51.213 68.8408 50.5362 69.3184C49.8593 69.796 49.6978 70.7319 50.1754 71.4088L58.4287 83.1047Z" fill="#A9563F"/>
<path d="M112.981 90.1445C112.981 89.04 112.086 88.1445 110.981 88.1445H85.9811C84.8766 88.1445 83.9811 89.04 83.9811 90.1445V119.149C83.9811 121.435 82.6188 123.453 80.8547 124.907C77.6698 127.53 75.3539 131.425 74.6407 136.005C73.186 145.346 78.9482 154 87.5108 155.333C90.9861 155.875 94.3886 155.127 97.3022 153.423C98.036 152.993 98.9525 152.993 99.6863 153.423C102.6 155.127 106.002 155.875 109.478 155.333C118.04 154 123.802 145.346 122.348 136.005C121.633 131.417 119.311 127.517 116.117 124.893C114.348 123.44 112.981 121.418 112.981 119.129V90.1445Z" fill="#FAF6F4" stroke="#A9563F" stroke-width="3"/>
<path d="M109.324 109.645C109.324 108.54 108.429 107.645 107.324 107.645H89.6447C88.5401 107.645 87.6447 108.54 87.6447 109.645V123.184C87.6447 125.476 86.246 127.485 84.5883 129.067C82.5804 130.984 81.14 133.622 80.6621 136.669C79.5746 143.603 83.8822 150.026 90.2834 151.016C92.7608 151.399 95.1887 150.912 97.2974 149.769C98.0405 149.366 98.9478 149.366 99.6909 149.769C101.8 150.912 104.228 151.399 106.705 151.016C113.106 150.026 117.414 143.603 116.326 136.669C115.847 133.617 114.403 130.975 112.39 129.057C110.727 127.474 109.324 125.462 109.324 123.167V109.645Z" fill="#A9563F"/>
<g opacity="0.06" filter="url(#filter0_f_1_235)">
<ellipse cx="80.5" cy="176.012" rx="72.5" ry="13" fill="#A25E4B"/>
</g>
<defs>
<filter id="filter0_f_1_235" x="0" y="155.012" width="161" height="42" filterUnits="userSpaceOnUse" color-interpolation-filters="sRGB">
<feFlood flood-opacity="0" result="BackgroundImageFix"/>
<feBlend mode="normal" in="SourceGraphic" in2="BackgroundImageFix" result="shape"/>
<feGaussianBlur stdDeviation="4" result="effect1_foregroundBlur_1_235"/>
</filter>
</defs>
</svg>
