<svg width="126" height="212" viewBox="0 0 126 212" fill="none" xmlns="http://www.w3.org/2000/svg">
<g opacity="0.06" filter="url(#filter0_f_1_217)">
<ellipse cx="60.4579" cy="191.01" rx="52.4579" ry="12.9889" fill="#A25E4B"/>
</g>
<path d="M73.6379 92.6392C73.6379 91.3218 72.57 90.2539 71.2526 90.2539H41.4643C40.147 90.2539 39.079 91.3218 39.079 92.6392V127.196C39.079 129.922 37.4541 132.329 35.3504 134.063C31.5566 137.189 28.7979 141.83 27.9481 147.286C26.2146 158.417 33.0813 168.729 43.2853 170.318C47.4263 170.963 51.4806 170.072 54.9524 168.042C55.8276 167.53 56.9205 167.53 57.7957 168.042C61.2675 170.072 65.3218 170.963 69.4628 170.318C79.6668 168.729 86.5335 158.417 84.8 147.286C83.9487 141.82 81.182 137.173 77.378 134.047C75.2684 132.313 73.6379 129.902 73.6379 127.172V92.6392Z" stroke="#A9563F" stroke-width="3"/>
<path d="M69.2797 122.885C69.2797 121.568 68.2118 120.5 66.8944 120.5H45.8301C44.5127 120.5 43.4448 121.568 43.4448 122.885L43.4448 131.595C43.4448 134.345 41.756 136.751 39.7588 138.641C37.3888 140.884 35.6898 143.96 35.1237 147.51C33.8278 155.637 38.9611 163.165 46.5892 164.325C49.548 164.775 52.4475 164.201 54.9642 162.855C55.8411 162.386 56.9067 162.386 57.7836 162.855C60.3003 164.201 63.1998 164.775 66.1586 164.325C73.7867 163.165 78.92 155.637 77.6241 147.51C77.0571 143.954 75.3532 140.873 72.9769 138.629C70.9741 136.738 69.2797 134.329 69.2797 131.574L69.2797 122.885Z" fill="#A9563F"/>
<path d="M50.2439 60.6446C49.7718 57.2361 51.4368 54.9156 53.2892 53.5187C54.8668 52.3289 56.9858 53.0302 58.2297 54.5655C59.4648 56.0899 60.0882 58.3604 60.6088 60.2566L60.6176 60.2885C61.1522 62.2356 62.1931 65.1311 63.9306 69.2599C66.8464 76.1883 61.4838 73.6182 63.9306 80.9159C66.1069 87.4066 52.1481 88.5083 53.1488 81.736C53.2339 81.1602 53.4706 80.5486 53.8937 79.9023C57.5435 74.3277 51.1563 67.2328 50.2439 60.6446Z" fill="#A9563F"/>
<path d="M84.8046 59.744C82.8867 60.9079 80.3867 60.2673 79.265 58.3245L62.5309 29.3416C61.4092 27.3988 62.1043 24.9136 64.0713 23.8347L102.311 2.86047C104.218 1.8145 106.611 2.48396 107.699 4.36756L123.478 31.6968C124.566 33.5804 123.949 35.9878 122.089 37.1162L84.8046 59.744Z" stroke="#A9563F" stroke-width="3"/>
<path d="M65.0448 52.6595C63.9012 53.3533 62.4107 52.9712 61.7418 51.8128L59.4128 47.779C58.744 46.6206 59.1583 45.1388 60.331 44.4953L66.5973 41.0567C67.7346 40.4327 69.162 40.8318 69.8107 41.9552L71.9846 45.7204C72.6332 46.8437 72.2651 48.2795 71.1561 48.9523L65.0448 52.6595Z" stroke="#A9563F" stroke-width="3"/>
<rect width="40.6885" height="12.9894" transform="matrix(-0.500018 -0.866015 0.866036 -0.499982 96.0701 52.793)" fill="#A9563F"/>
<defs>
<filter id="filter0_f_1_217" x="0" y="170.021" width="120.916" height="41.9779" filterUnits="userSpaceOnUse" color-interpolation-filters="sRGB">
<feFlood flood-opacity="0" result="BackgroundImageFix"/>
<feBlend mode="normal" in="SourceGraphic" in2="BackgroundImageFix" result="shape"/>
<feGaussianBlur stdDeviation="4" result="effect1_foregroundBlur_1_217"/>
</filter>
</defs>
</svg>
